<svg width="30" height="24" viewBox="0 0 30 24" fill="none" xmlns="http://www.w3.org/2000/svg"><g clip-path="url(#clip0)"><path fill-rule="evenodd" clip-rule="evenodd" d="M21.9604 5.30592C19.7035 1.95373 15.794 -0.198752 11.398 0.0145301C5.19133 0.317835 0.177995 5.44735 0.00466173 11.6601C-0.182005 18.4428 5.26133 23.9989 12.0013 23.9989C16.1513 23.9989 19.808 21.8925 21.9613 18.6928L12.148 12.2767C11.9513 12.1467 11.9513 11.8534 12.148 11.7234L21.961 5.3076C23.2504 7.22047 24 9.51972 24 11.9989C24 14.4786 23.25 16.7784 21.96 18.6916L29.48 23.9411C29.7033 24.0877 30 23.9311 30 23.6644V0.333302C30 0.0666607 29.7033 -0.0933242 29.48 0.0566617L21.9604 5.30592Z" fill="white"></path></g><defs><clipPath id="clip0"><rect width="30" height="24" fill="white"></rect></clipPath></defs></svg>