<svg width="48" height="24" viewBox="0 0 48 24" fill="none" xmlns="http://www.w3.org/2000/svg"><g clip-path="url(#clips0)"><path d="M25.69 5.33105C23.8432 5.33105 22.2342 6.19211 21.4451 7.49571V5.54031H18.8885V24H21.4451V16.8302C22.21 18.0823 23.7915 18.8885 25.5591 18.8885C29.5939 18.8885 31.9954 16.0206 31.9954 12.1098C31.992 8.19897 29.6972 5.33105 25.69 5.33105ZM25.3214 16.6724C22.844 16.6724 21.2349 14.8473 21.2349 12.1098C21.2349 9.37221 22.844 7.54717 25.3214 7.54717C27.7746 7.54717 29.4078 9.37221 29.4078 12.1098C29.4078 14.8473 27.7746 16.6724 25.3214 16.6724Z" fill="white"></path><path d="M38.6384 5.33105C35.4995 5.33105 33.1255 7.259 32.9154 9.8422H35.2894C35.3686 8.51115 36.7124 7.36535 38.5592 7.36535C40.6162 7.36535 41.7773 8.45969 41.7773 10.0515C41.7773 10.5214 41.4879 10.8336 40.8815 10.8336H38.1113C34.9724 10.8336 32.9429 12.3979 32.9429 14.9262C32.9429 17.2727 34.7346 18.8885 37.4532 18.8885C39.4585 18.8885 41.1468 17.9485 41.7773 16.542V18.6792H44.3339V10.2058C44.3374 7.28645 42.0668 5.33105 38.6384 5.33105ZM41.7773 12.9194C41.7773 15.3448 40.3784 16.8816 37.9528 16.8816C36.4746 16.8816 35.4754 16.072 35.4754 14.8748C35.4754 13.4923 36.609 12.6072 38.349 12.6072H41.7773V12.9194Z" fill="white"></path><path d="M48 0.25386H45.4434V18.6792H48V0.25386Z" fill="white"></path><path d="M8.97222 0C3.61439 0 0 4.00686 0 9.43396C0 14.8611 3.61439 18.8679 8.97222 18.8679C14.3025 18.8679 17.9169 14.8611 17.9169 9.43396C17.9169 4.00686 14.3025 0 8.97222 0ZM8.97222 16.4425C5.24758 16.4425 2.83914 13.4648 2.83914 9.43396C2.83914 5.40309 5.24758 2.42539 8.97222 2.42539C12.6969 2.42539 15.0777 5.40309 15.0777 9.43396C15.0777 13.4648 12.6969 16.4425 8.97222 16.4425Z" fill="white"></path></g><defs><clipPath id="clips0"><rect width="48" height="24" fill="white"></rect></clipPath></defs></svg>